<svg width="512" height="512" viewBox="0 0 512 512" fill="none" xmlns="http://www.w3.org/2000/svg">
<rect width="512" height="512" fill="#F7FAFF"/>
<g clip-path="url(#clip0_702_2)">
<path d="M282.126 225.375H229.626C224.915 225.375 220.998 229.292 220.998 234.125V277.875C220.998 282.708 224.915 286.625 229.625 286.625H282.125C286.958 286.625 290.875 282.708 290.875 277.875V234.125C290.876 229.292 287.075 225.375 282.126 225.375ZM236.189 234.125C239.813 234.125 242.751 237.063 242.751 240.688C242.751 244.312 239.935 247.25 236.189 247.25C232.443 247.25 229.626 244.312 229.626 240.688C229.626 237.063 232.686 234.125 236.189 234.125ZM281.99 276.727C281.607 277.438 280.868 277.875 280.062 277.875H232.212C231.388 277.875 230.635 277.413 230.262 276.679C229.889 275.945 229.959 275.064 230.444 274.398L240.015 261.273C240.427 260.703 241.083 260.375 241.781 260.375C242.478 260.375 243.136 260.709 243.548 261.274L247.986 267.359L260.742 248.342C261.154 247.619 261.837 247.25 262.562 247.25C263.286 247.25 263.977 247.615 264.382 248.224L281.882 274.474C282.331 275.141 282.372 276.002 281.99 276.727Z" fill="#E2EFFF"/>
</g>
<defs>
<clipPath id="clip0_702_2">
<rect width="70" height="70" fill="white" transform="translate(221 221)"/>
</clipPath>
</defs>
</svg>
